<svg width="312" height="413" viewBox="0 0 312 413" fill="none" xmlns="http://www.w3.org/2000/svg">
<path d="M31.174 375.6L139.524 202.9C122.657 192.633 108.724 184.2 97.724 177.6C86.724 171 77.924 164.583 71.324 158.35C64.724 151.75 60.1407 144.417 57.574 136.35C55.0074 128.283 53.724 117.283 53.724 103.35V69.25C53.724 42.1166 57.9407 23.9666 66.374 14.8C74.8074 5.26664 91.124 0.499967 115.324 0.499967H311.674V37.9H277.024V375.6H311.674V413H196.174V375.6H231.924V260.1L173.624 224.35L79.574 375.6H109.274V413H0.374024V375.6H31.174ZM231.924 37.9H93.874V130.85L231.924 216.1V37.9Z" fill="#F37113" fill-opacity="0.3"/>
</svg>
